<svg width="40" height="40" viewBox="0 0 40 40" fill="none" xmlns="http://www.w3.org/2000/svg">
<path d="M19.9999 3.33398C10.7999 3.33398 3.33325 10.8007 3.33325 20.0007C3.33325 29.2007 10.7999 36.6673 19.9999 36.6673C29.1999 36.6673 36.6666 29.2007 36.6666 20.0007C36.6666 10.8007 29.1999 3.33398 19.9999 3.33398ZM19.9999 10.0007C23.2166 10.0007 25.8333 12.6173 25.8333 15.834C25.8333 19.0507 23.2166 21.6673 19.9999 21.6673C16.7833 21.6673 14.1666 19.0507 14.1666 15.834C14.1666 12.6173 16.7833 10.0007 19.9999 10.0007ZM19.9999 33.334C16.6166 33.334 12.6166 31.9673 9.76659 28.534C12.5833 26.334 16.1333 25.0007 19.9999 25.0007C23.8666 25.0007 27.4166 26.334 30.2333 28.534C27.3833 31.9673 23.3833 33.334 19.9999 33.334Z" fill="#212121"/>
</svg>
