<svg width="364" height="378" viewBox="0 0 364 378" fill="none" xmlns="http://www.w3.org/2000/svg">
<g clip-path="url(#clip0_506_4654)">
<path d="M323.391 287.669L323.384 287.839L331.929 378H269.57L261.486 322.626L257.929 376.58L193.89 375.87L200.692 305.034L206.477 272.2V272.193L207.345 267.251H321.69L321.84 269.04L323.391 287.669Z" fill="#2F2E41"/>
<path d="M158.591 339.935C165.196 341.136 172.082 333.715 173.973 323.36C174.801 318.827 174.534 314.484 173.418 310.932L174.431 304.963L191.425 224.663C191.425 224.663 222.719 162.207 222.718 151.365C222.717 140.522 213.666 135.205 213.666 135.205L201.417 135.319L163.006 228.92L156.088 298.089L154.969 307.578C152.669 310.51 150.884 314.48 150.057 319.013C148.166 329.367 151.987 338.735 158.591 339.935Z" fill="#FFB6B6"/>
<path d="M283.189 96.5134L271.804 70.2461L234.804 76.6354L232.313 107.54L283.189 96.5134Z" fill="#FFB6B6"/>
<path opacity="0.1" d="M283.189 96.5134L271.804 70.2461L234.804 76.6354L232.313 107.54L283.189 96.5134Z" fill="black"/>
<path d="M363.593 151.178C363.593 151.178 337.266 102.193 332.285 97.2234C330.068 95.0111 326.582 94.9804 323.396 95.6251L286.746 83.0249L274.324 76.061L273.506 89.3097L232.723 96.6131C232.95 88.5335 234.092 85.4603 234.092 85.4603L219.15 102.903L189.976 117.101L189.992 117.229C187.851 117.975 185.822 119.251 184.284 121.361C178.591 129.17 162.938 224.301 162.938 224.301L196.38 231.4L200.932 202.904L204.207 228.56L206.698 276.48C206.698 276.48 252.236 315.526 274.294 301.328C296.352 287.129 323.391 287.839 323.391 287.839L324.066 265.627C324.546 264.861 324.814 264.411 324.814 264.411L324.103 185.621V164.655C329.523 172.19 336.065 178.67 343.67 181.705C368.574 191.644 363.593 151.178 363.593 151.178V151.178Z" fill="#E6E6E6"/>
<path d="M249.436 81.2572C268.236 81.2572 283.476 66.052 283.476 47.2954C283.476 28.5387 268.236 13.3335 249.436 13.3335C230.637 13.3335 215.397 28.5387 215.397 47.2954C215.397 66.052 230.637 81.2572 249.436 81.2572Z" fill="#FFB6B6"/>
<path d="M273.856 56.8933C273.856 56.8933 276.816 46.557 283.476 47.2953C290.135 48.0336 291.615 42.1272 290.135 39.174C288.655 36.2208 285.696 21.4548 285.696 21.4548C285.696 21.4548 287.175 11.1186 278.296 9.64196C269.416 8.16536 266.456 6.68875 264.976 3.73554C263.496 0.782336 241.297 -2.17087 233.897 2.25894C226.497 6.68875 220.577 15.1879 215.397 17.5831C210.217 19.9782 205.777 24.408 208.737 31.791C211.697 39.174 215.99 53.6136 215.99 53.6136C215.99 53.6136 223.537 50.9869 225.017 55.4167C226.497 59.8465 220.577 53.9401 227.977 42.1272C235.377 30.3144 235.377 18.5016 247.216 22.9314C259.056 27.3612 272.376 25.8846 270.896 34.7442C269.416 43.6038 273.856 56.8933 273.856 56.8933V56.8933Z" fill="#2F2E41"/>
<path d="M271.774 326.13H13.2584C5.94757 326.13 0 320.195 0 312.901V175.89C0 168.597 5.94757 162.662 13.2584 162.662H271.774C279.085 162.662 285.033 168.597 285.033 175.89V312.901C285.033 320.195 279.085 326.13 271.774 326.13Z" fill="white"/>
<path d="M271.774 326.13H13.2584C5.94757 326.13 0 320.195 0 312.901V175.89C0 168.597 5.94757 162.662 13.2584 162.662H271.774C279.085 162.662 285.033 168.597 285.033 175.89V312.901C285.033 320.195 279.085 326.13 271.774 326.13ZM13.2584 164.871C7.16865 164.871 2.21405 169.814 2.21405 175.89V312.901C2.21405 318.977 7.16865 323.921 13.2584 323.921H271.774C277.864 323.921 282.819 318.977 282.819 312.901V175.89C282.819 169.814 277.864 164.871 271.774 164.871H13.2584Z" fill="#3F3D56"/>
<path d="M251.822 179.23C253.656 179.23 255.143 177.746 255.143 175.916C255.143 174.086 253.656 172.603 251.822 172.603C249.988 172.603 248.501 174.086 248.501 175.916C248.501 177.746 249.988 179.23 251.822 179.23Z" fill="#3F3D56"/>
<path d="M260.678 179.23C262.512 179.23 263.999 177.746 263.999 175.916C263.999 174.086 262.512 172.603 260.678 172.603C258.844 172.603 257.357 174.086 257.357 175.916C257.357 177.746 258.844 179.23 260.678 179.23Z" fill="#3F3D56"/>
<path d="M269.534 179.23C271.369 179.23 272.856 177.746 272.856 175.916C272.856 174.086 271.369 172.603 269.534 172.603C267.7 172.603 266.213 174.086 266.213 175.916C266.213 177.746 267.7 179.23 269.534 179.23Z" fill="#3F3D56"/>
<path d="M18.8195 229.485C17.9038 229.485 17.1589 230.228 17.1589 231.142C17.1589 231.587 17.3314 231.999 17.6443 232.303C17.96 232.626 18.3735 232.798 18.8195 232.798H267.32C268.236 232.798 268.981 232.055 268.981 231.142C268.981 230.696 268.808 230.284 268.495 229.98C268.18 229.657 267.766 229.485 267.32 229.485H18.8195Z" fill="#E6E6E6"/>
<path d="M236.324 228.933V233.351H18.8195C18.2107 233.351 17.6572 233.108 17.2586 232.699C16.849 232.301 16.6055 231.749 16.6055 231.142C16.6055 229.927 17.6018 228.933 18.8195 228.933H236.324Z" fill="#919BFF"/>
<path d="M264.553 220.649H242.412C239.971 220.649 237.984 218.668 237.984 216.231C237.984 213.794 239.971 211.813 242.412 211.813H264.553C266.994 211.813 268.981 213.794 268.981 216.231C268.981 218.668 266.994 220.649 264.553 220.649Z" fill="#E6E6E6"/>
<path d="M119.532 197.454H20.4801C18.0385 197.454 16.052 195.473 16.052 193.036C16.052 190.6 18.0385 188.618 20.4801 188.618H119.532C121.974 188.618 123.96 190.6 123.96 193.036C123.96 195.473 121.974 197.454 119.532 197.454Z" fill="#E6E6E6"/>
<path d="M18.8195 279.188C17.9038 279.188 17.1589 279.931 17.1589 280.845C17.1589 281.29 17.3314 281.702 17.6443 282.006C17.96 282.329 18.3735 282.502 18.8195 282.502H267.32C268.236 282.502 268.981 281.758 268.981 280.845C268.981 280.399 268.808 279.987 268.495 279.683C268.18 279.361 267.766 279.188 267.32 279.188H18.8195Z" fill="#E6E6E6"/>
<path d="M151.083 278.636V283.054H18.8195C18.2107 283.054 17.6572 282.811 17.2586 282.402C16.849 282.004 16.6055 281.452 16.6055 280.845C16.6055 279.63 17.6018 278.636 18.8195 278.636H151.083Z" fill="#919BFF"/>
<path d="M264.553 270.352H242.412C239.971 270.352 237.984 268.37 237.984 265.934C237.984 263.497 239.971 261.516 242.412 261.516H264.553C266.994 261.516 268.981 263.497 268.981 265.934C268.981 268.37 266.994 270.352 264.553 270.352Z" fill="#E6E6E6"/>
<path d="M303.313 83.8713C322.461 83.8713 337.984 68.7102 337.984 50.0079C337.984 31.3057 322.461 16.1445 303.313 16.1445C284.165 16.1445 268.642 31.3057 268.642 50.0079C268.642 68.7102 284.165 83.8713 303.313 83.8713Z" fill="#919BFF"/>
<path d="M315.08 32.9269C310.465 41.3127 305.849 49.6986 301.233 58.0844C298.291 52.8984 295.365 47.7032 292.416 42.5213C291.398 40.7316 288.628 42.3413 289.649 44.1354C293.067 50.1424 296.45 56.1695 299.869 62.1765C300.453 63.2036 302.058 63.2275 302.637 62.1765C307.707 52.9647 312.778 43.7529 317.848 34.5411C318.842 32.736 316.075 31.1205 315.08 32.9269Z" fill="white"/>
<path d="M351.175 139.268L316.631 122.781C316.631 122.781 315.244 111.746 308.766 107.81C307.664 105.189 306.397 102.309 305.246 100.027C302.4 94.3838 306.669 83.7349 303.112 83.7349C299.554 83.7349 294.295 94.9343 294.573 97.9334C294.787 100.236 296.694 104.255 297.088 107.774C292.75 109.406 289.25 112.204 286.949 114.432C284.957 116.36 284.218 119.237 284.996 121.894C287.251 129.595 292.888 145.499 300.977 145.499C311.65 145.499 314.496 143.369 314.496 143.369C314.496 143.369 336.554 171.056 352.92 173.186C369.285 175.316 351.175 139.268 351.175 139.268V139.268Z" fill="#FFB6B6"/>
</g>
<defs>
<clipPath id="clip0_506_4654">
<rect width="364" height="378" fill="white"/>
</clipPath>
</defs>
</svg>
