<svg id="Layer_1" data-name="Layer 1" xmlns="http://www.w3.org/2000/svg" viewBox="0 0 100 100.00598"><defs><style>.cls-1{fill:#020202;}.cls-2{fill:#010101;}</style></defs><path class="cls-1" d="M396.34839,170.822a7.215,7.215,0,0,0,2.42228.3887,7.33882,7.33882,0,0,1,6.73323,7.21167c.02007.70976.29388.75747.85965.76156a16.282,16.282,0,0,1,4.17567.228,7.08124,7.08124,0,0,1,5.33125,6.37809c.07127,9.2414.0263,18.48369.0263,27.83017a24.01515,24.01515,0,0,0-4.34732-2.18748c-1.66991-.47342-1.93645-1.43849-1.91433-3.03178.09849-7.0941.04343-14.19033.0422-21.2858-.00026-1.53489-.15429-1.70636-1.66847-1.68435-.802.01166-1.85563-.35514-2.33806.14543-.48126.49935-.13509,1.5475-.13635,2.35362q-.0158,10.10613-.006,20.21231l0,1.16a40.50033,40.50033,0,0,0-5.784-.90087c-.381-.02791-.51173-.18312-.47051-.54664a5.22668,5.22668,0,0,0,.00375-.58543q0-14.06073-.00035-28.12147c-.0001-1.36709-.15478-1.564-1.50573-1.75093-9.055-1.25274-17.02263,1.2598-24.0889,6.93736-.48374.38867-.42752.82355-.42762,1.29673q-.00357,15.52539.013,31.05076a2.05966,2.05966,0,0,1-.71094,1.68564,32.05921,32.05921,0,0,0-5.03773,6.06458,1.00431,1.00431,0,0,1-.51729.45966v-1.025q0-19.0894.0174-38.17878a1.80958,1.80958,0,0,0-.79948-1.61468,31.37427,31.37427,0,0,0-15.12866-6.72109,31.78012,31.78012,0,0,0-9.04469.08633,1.162,1.162,0,0,0-1.11543,1.23454c-.00921.22747-.00223.45562-.00223.68345q-.00006,21.9699,0,43.93981c0,1.76636.19475,1.984,1.99468,1.81821a36.82119,36.82119,0,0,1,20.89995,4.24516c.63992.33583.80323.59984.50576,1.30854a30.74259,30.74259,0,0,0-2.36954,9.79713c-.06965.99862-.40813,1.23992-1.38769,1.23565-9.34054-.04073-18.68133-.02427-28.022-.02433-4.33685,0-6.56071-1.55129-8.07949-5.62813-.02782-.07468-.12685-.12283-.19265-.18335V184.88536c.33757-.1338.2809-.48015.37344-.73329a7.22752,7.22752,0,0,1,5.61569-4.86626,15.48348,15.48348,0,0,1,3.60348-.09883c.63065.017.79719-.15964.83354-.80454a7.35677,7.35677,0,0,1,6.98033-7.19089,3.19188,3.19188,0,0,0,1.73414-.36953h6.64063c.0376.15406.15344.17447.28941.18576a35.56158,35.56158,0,0,1,18.72279,7.39887,1.37772,1.37772,0,0,0,2.03332.04,36.38,36.38,0,0,1,16.0064-7.10829,6.9714,6.9714,0,0,0,2.59652-.51635ZM361.64481,235.4249a3.09564,3.09564,0,0,0-.35959-.31491,30.49715,30.49715,0,0,0-17.16477-3.80489,12.006,12.006,0,0,1-3.69327-.02426,7.34667,7.34667,0,0,1-5.747-7.57541q-.009-17.82285-.00479-35.64571c-.00026-.84079.29241-1.99567-.13667-2.44385-.55166-.57622-1.71433-.16557-2.612-.18253-1.0757-.02031-1.39562.31546-1.39586,1.38648q-.00523,23.58476-.00039,47.16952c.0002,1.07435.32656,1.43012,1.37645,1.43095C341.76462,235.42806,351.62231,235.4249,361.64481,235.4249Z" transform="translate(-324.27808 -170.82202)"/><path class="cls-2" d="M394.2,270.828a16.83233,16.83233,0,0,0-3.25544-.7383,27.0924,27.0924,0,0,1,.894-52.90814c14.76174-3.14006,29.7983,7.239,32.07735,22.12109.08366.5463-.03036,1.15613.36219,1.64075v5.85972c-.39069.29811-.26757.76468-.33109,1.14632a27.12642,27.12642,0,0,1-20.63027,22.1788,25.18524,25.18524,0,0,0-3.4527.69976Zm-.12267-20.34447a3.25474,3.25474,0,0,0,2.16134,3.52737,3.07937,3.07937,0,0,0,4.04751-3.05426,7.7697,7.7697,0,0,1,3.04957-6.52723,10.65214,10.65214,0,0,0,4.1594-10.14958c-.596-5.34908-5.58682-9.65868-10.75184-9.27377a10.65694,10.65694,0,0,0-9.962,10.852,3.11768,3.11768,0,0,0,3.19682,3.00885c1.77093-.04,2.93873-1.32226,3.05577-3.35527a4.379,4.379,0,0,1,3.8329-4.25,4.1579,4.1579,0,0,1,4.28932,3.12505,4.57109,4.57109,0,0,1-1.66931,5.13582A13.444,13.444,0,0,0,394.07728,250.48354Zm6.21958,8.85817a3.1351,3.1351,0,0,0-3.105-3.11059,3.18743,3.18743,0,0,0-3.13218,3.11012,3.14106,3.14106,0,0,0,3.18108,3.133A3.07446,3.07446,0,0,0,400.29686,259.34171Z" transform="translate(-324.27808 -170.82202)"/></svg>