<svg xmlns="http://www.w3.org/2000/svg" width="515" height="587.537" viewBox="0 0 515 587.537"><g transform="translate(0 0)"><path d="M584.959,753.874l-.656-14.741-.2-.108a9.057,9.057,0,0,0-12.832,10.6c2.111,7.159,3.529,14.878,7.394,21.144a28.636,28.636,0,0,0,21,13.233l8.925,5.464a47.984,47.984,0,0,0-10.114-38.884,46.348,46.348,0,0,0-8.518-7.915C587.815,748.3,584.959,753.874,584.959,753.874Z" transform="translate(-338.103 -202.692)" fill="#f2f2f2"/><path d="M460.275,501.31c-17.182-17.72-42.082-27.883-68.315-27.883l-1.012,0a97.549,97.549,0,0,1-49.176-13.28l-1.553-.9,1.251-1.289a95.082,95.082,0,0,0,16.768-23.739,28.752,28.752,0,0,1-23.2,7.5,29.441,29.441,0,0,1-21.613-13.843c-9.169-14.876-20.1-35.984-20.1-52.065a97.847,97.847,0,0,1,31.922-72.2,60.93,60.93,0,0,0,20.128-45.432l-.005-1.218a138.229,138.229,0,0,1,4.107-33.46l.272-1.084,1.136.04a93.421,93.421,0,0,0,21.845-1.83,73.734,73.734,0,0,1-19.591-5.211l-1.222-.495.415-1.253c28.6-17.708,93.157-8.538,130.628-94.269C513.341,49.874,620.546,181.1,620.546,256.952c0,7.74-7.66,17.968-1.926,23.083,61.986,55.3,19.216,90.811,5.732,126.542-3.2,8.478,3.738,17.785,3.738,26.957,0,1.556-.04,3.163-.118,4.775l-.119,2.478-2.067-1.375a68.458,68.458,0,0,1-11.3-9.273,59.659,59.659,0,0,1-1.892,51.5c-6.5,12.26-12.781,21.038-18.679,26.087a97.528,97.528,0,0,1-133.636-6.421Z" transform="translate(-293.324 -99.719)" fill="#e6e6e6"/><path d="M599.894,729.288a1.756,1.756,0,0,0,1.736-1.508c.075-.524,7.381-53.216.819-123.247-6.06-64.675-25.52-157.829-83.816-234.336a1.756,1.756,0,0,0-2.793,2.128c57.792,75.846,77.1,168.317,83.113,232.535,6.524,69.623-.725,121.9-.8,122.424a1.757,1.757,0,0,0,1.74,2Z" transform="translate(-329.165 -143.245)" fill="#3f3d56"/><path d="M525.927,490.6a1.756,1.756,0,0,0,1.034-3.176c-.212-.154-21.538-15.52-53.42-27.194-29.473-10.79-74.291-20.572-120.43-5.888a1.755,1.755,0,1,0,1.065,3.346c45.194-14.383,89.2-4.762,118.158,5.84,31.427,11.507,52.355,26.586,52.563,26.737a1.748,1.748,0,0,0,1.031.335Z" transform="translate(-302.772 -155.731)" fill="#3f3d56"/><path d="M645.035,260.011a1.756,1.756,0,0,0-3.093-1.26c-.169.2-17.031,20.364-30.97,51.323-12.885,28.619-25.869,72.616-14.545,119.694a1.755,1.755,0,0,0,3.414-.821c-11.091-46.112,1.674-89.31,14.334-117.431,13.74-30.517,30.287-50.3,30.453-50.5A1.748,1.748,0,0,0,645.035,260.011Z" transform="translate(-341.525 -125.276)" fill="#3f3d56"/><path d="M652.345,364.1c1.481,11.951,9.763,21.805,21.805,21.805A21.805,21.805,0,0,0,695.955,364.1c0-12.043-9.814-20.692-21.805-21.805C661.427,341.112,650.443,348.755,652.345,364.1Z" transform="translate(-351.211 -138.836)" fill="#2f2e41"/><path d="M397.1,681.167h8.3l3.95-32.029H397.1Z" transform="translate(-64.066 -104.727)" fill="#ffb6b6"/><path d="M690.081,794.721h25.535V794.4a9.939,9.939,0,0,0-9.938-9.939h0l-4.664-3.539-8.7,3.539H690.08Z" transform="translate(-357.334 -209.62)" fill="#2f2e41"/><path d="M358.1,681.167h8.3l3.95-32.029H358.1Z" transform="translate(-57.774 -104.727)" fill="#ffb6b6"/><path d="M651.081,794.721h25.535V794.4a9.939,9.939,0,0,0-9.938-9.939h0l-4.664-3.539-8.7,3.539H651.08Z" transform="translate(-351.042 -209.62)" fill="#2f2e41"/><path d="M711.468,546.593l5.871,20.128-6.916,85.246s3.561,5.33,1.045,5.33-5.742,1.182-3.71,4.365-4.915,14.61-4.915,14.61l-9.826,60.7-12.521-.185s-6.366-3.546-2.793-7.132,6.088-3.586,2.734-6.94-3.355-2.344-3.355-4.946-3.361-34.4,4.609-46.6l-2.4-49.729-5.656,48.778-11.647,65.073-12.061-.1s-5.571-5.37-5.561-9.345,3.442-4.3.888-6.656-2.555-38.466,4.993-58.542c0,0,4.27-11.216-.01-15.06s-.005-8.241-.005-8.241,6.778-2.45-.006-9.509-.037-56.987-.037-56.987-7.416-20.154.095-28.078S711.468,546.593,711.468,546.593Z" transform="translate(-349.854 -170.756)" fill="#2f2e41"/><path d="M599.018,584.337l10.474-25.313,8.253,4.585-4.984,25.75a9.171,9.171,0,1,1-13.743-5.021Z" transform="translate(-341.965 -173.82)" fill="#ffb6b6"/><path d="M804.988,347.11,789.05,369.392l-7-6.335,10.689-23.951a9.17,9.17,0,1,1,12.248,8Z" transform="translate(-372.172 -136.76)" fill="#ffb6b6"/><path d="M706.4,518.207c10.337,16.034-41.624,36.382-61.562,28.213-3.491-1.43-15.5-6.155-7.292-12.706s-.952-7.472-1.168-11.736c-.145-2.851,2.062-9.1-.24-8.836s-5-3.674.017-5.371.054-3.244.1-4.854c.48-17.575,13.964-45.529,13.964-45.529l-24.3,62.109s.179,10.745-2.919,7.462-2.873,7.344-2.873,7.344-4.607,3.215-1.958,5-2.852,7.291-2.852,7.291l-12.837-.917s.2-9.536,2.393-11.645,1.115-5.427,1.115-5.427,5.707-5.052,1.881-9.153c-4.921-5.275,13.02-94.375,19.211-93.493a23.584,23.584,0,0,1,16.841-17.991l13.865-3.818,2.462-9.768h19.523l3.4,6.419,14.843,6.7c2.8-3.945,4.885-8.1,16.333-9.449,0,0,30.848-28.068,29.342-30.259s3.276-7.322,3.276-7.322,4.084-1.337,1.779-2.05,2.051-2.364,2.051-2.364,4.034-1.06,2.131-2.456,6.35-2.313,6.35-2.313l10.707,8.736-2.164,3.669s1.319,5-.4,3.173-2.046,3.47-2.046,3.47-.88,5.8-6.094,7.543S750.1,396.22,750.1,396.22c-12.3,15.991-26.813,28.466-44.013,36.678C712.793,440.592,706.4,518.207,706.4,518.207Z" transform="translate(-343.2 -140.306)" fill="#6c63ff"/><circle cx="19.336" cy="19.336" r="19.336" transform="translate(306.014 209.692)" fill="#ffb6b6"/><path d="M657.228,369.762c.612,4.2,4.193,10.064,3.355,10.064s-6.8-17.321-.839-18.451c4.325-.819,5.292-.1,9.334-1.853l-.57.537c2.675,1.946,6.4.746,9.452-.52s6.776-2.457,9.46-.52c1.686,1.216,2.4,3.33,3.447,5.124s2.986,3.506,4.982,2.952a3.943,3.943,0,0,0,2.516-3.9c-.008-1.66-2.171-3.24-1.442-4.73,2.158-4.415.217-7.425-4.487-9.5q-2.566-.39-5.133-.8a14.558,14.558,0,0,1,3.221-3.237,7.358,7.358,0,0,0-2.6-3.329,8.162,8.162,0,0,0-4.646-.671l-10.609.554c-2.617.134-5.326.294-7.665,1.493-2.919,1.5-4.831,4.428-6.223,7.405C655.659,357.073,656.154,362.457,657.228,369.762Z" transform="translate(-351.901 -138.627)" fill="#2f2e41"/><path d="M561.284,799.589l190.168.258a1,1,0,1,0,0-2l-190.168-.258a1,1,0,1,0,0,2Z" transform="translate(-336.393 -212.309)" fill="#cacaca"/><ellipse cx="4.409" cy="6.338" rx="4.409" ry="6.338" transform="matrix(0.144, -0.99, 0.99, 0.144, 142.933, 502.771)" fill="#e6e6e6"/><ellipse cx="4.409" cy="6.338" rx="4.409" ry="6.338" transform="matrix(0.144, -0.99, 0.99, 0.144, 184.172, 498.747)" fill="#3f3d56"/><ellipse cx="4.409" cy="6.338" rx="4.409" ry="6.338" transform="matrix(0.144, -0.99, 0.99, 0.144, 131.641, 469.385)" fill="#ff6584"/><ellipse cx="4.005" cy="2.786" rx="4.005" ry="2.786" transform="matrix(0.008, -1, 1, 0.008, 121.296, 457.135)" fill="#e6e6e6"/><ellipse cx="4.005" cy="2.786" rx="4.005" ry="2.786" transform="matrix(0.008, -1, 1, 0.008, 115.219, 431.664)" fill="#3f3d56"/><ellipse cx="4.005" cy="2.786" rx="4.005" ry="2.786" transform="matrix(0.008, -1, 1, 0.008, 162.474, 476.492)" fill="#e6e6e6"/><ellipse cx="4.005" cy="2.786" rx="4.005" ry="2.786" transform="matrix(0.008, -1, 1, 0.008, 142.546, 486.441)" fill="#ff6584"/><ellipse cx="4.005" cy="2.786" rx="4.005" ry="2.786" transform="matrix(0.008, -1, 1, 0.008, 170.287, 504.832)" fill="#3f3d56"/><ellipse cx="4.409" cy="6.338" rx="4.409" ry="6.338" transform="matrix(0.144, -0.99, 0.99, 0.144, 459.949, 373.617)" fill="#e6e6e6"/><ellipse cx="4.409" cy="6.338" rx="4.409" ry="6.338" transform="matrix(0.144, -0.99, 0.99, 0.144, 501.188, 369.592)" fill="#3f3d56"/><ellipse cx="4.409" cy="6.338" rx="4.409" ry="6.338" transform="matrix(0.144, -0.99, 0.99, 0.144, 448.657, 340.231)" fill="#ff6584"/><ellipse cx="4.005" cy="2.786" rx="4.005" ry="2.786" transform="matrix(0.008, -1, 1, 0.008, 438.312, 327.981)" fill="#e6e6e6"/><ellipse cx="4.005" cy="2.786" rx="4.005" ry="2.786" transform="matrix(0.008, -1, 1, 0.008, 432.235, 302.51)" fill="#3f3d56"/><ellipse cx="4.005" cy="2.786" rx="4.005" ry="2.786" transform="matrix(0.008, -1, 1, 0.008, 479.489, 347.338)" fill="#e6e6e6"/><ellipse cx="4.005" cy="2.786" rx="4.005" ry="2.786" transform="matrix(0.008, -1, 1, 0.008, 459.561, 357.287)" fill="#ff6584"/><ellipse cx="4.005" cy="2.786" rx="4.005" ry="2.786" transform="matrix(0.008, -1, 1, 0.008, 487.302, 375.678)" fill="#3f3d56"/><ellipse cx="4.409" cy="6.338" rx="4.409" ry="6.338" transform="matrix(0.144, -0.99, 0.99, 0.144, 306.473, 134.597)" fill="#fff"/><ellipse cx="4.409" cy="6.338" rx="4.409" ry="6.338" transform="matrix(0.144, -0.99, 0.99, 0.144, 347.712, 130.573)" fill="#3f3d56"/><ellipse cx="4.409" cy="6.338" rx="4.409" ry="6.338" transform="matrix(0.144, -0.99, 0.99, 0.144, 295.181, 101.211)" fill="#ff6584"/><ellipse cx="4.005" cy="2.786" rx="4.005" ry="2.786" transform="matrix(0.008, -1, 1, 0.008, 284.836, 88.961)" fill="#e6e6e6"/><ellipse cx="4.005" cy="2.786" rx="4.005" ry="2.786" transform="matrix(0.008, -1, 1, 0.008, 278.759, 63.49)" fill="#3f3d56"/><ellipse cx="4.005" cy="2.786" rx="4.005" ry="2.786" transform="matrix(0.008, -1, 1, 0.008, 326.014, 108.318)" fill="#e6e6e6"/><ellipse cx="4.005" cy="2.786" rx="4.005" ry="2.786" transform="matrix(0.008, -1, 1, 0.008, 306.086, 118.268)" fill="#ff6584"/><ellipse cx="4.005" cy="2.786" rx="4.005" ry="2.786" transform="matrix(0.008, -1, 1, 0.008, 333.827, 136.658)" fill="#3f3d56"/></g></svg>